<svg width="1228" height="758" viewBox="0 0 1228 758" fill="none" xmlns="http://www.w3.org/2000/svg">
<path d="M616.133 9.60024C626.8 52.1336 619.066 90.5336 592.266 127.867C582.8 141.067 567.733 158.4 542.666 184.667C495.866 233.734 479.466 258.267 474.533 286C472 300.934 473.733 326.934 478.4 345.334C483.733 365.6 486.666 373.6 496.133 392.667C503.333 407.2 516.8 427.6 518.266 426.267C518.533 425.867 518.266 419.867 517.466 412.8C511.066 355.734 526.8 307.6 568.133 258.267C573.733 251.467 589.6 234.267 603.333 220C631.466 190.8 641.866 178.267 650.8 163.2C673.733 124.534 670.666 85.7336 641.066 35.0669C631.066 18.0002 618 0.000238182 615.6 0.000238182C614.133 0.000238182 614.266 1.8669 616.133 9.60024Z" fill="#E4000F"/>
<path d="M708.133 153.066C706.8 138.533 703.867 122.133 702 118.4L731.733 159.333C746.933 187.066 754.667 214.266 752.8 233.333C751.2 249.2 750.533 253.866 749.6 255.2C735.216 287.23 719.635 302.627 696.267 331.6C662.296 365.288 648 386 624 425.866C615.467 443.733 611.733 455.6 607.467 477.2C604.267 492.8 604 497.2 604.4 518C604.533 530.8 604.267 541.333 603.733 541.333L582.8 506C560.667 453.2 558.267 405.333 576.267 373.333C583.2 361.2 592.4 351.6 592.4 351.6L627.2 310L690.267 234.266C699.094 218.216 702.378 209.042 706 192.666C709.067 172.266 709.333 167.066 708.133 153.066Z" fill="#0A9530"/>
<path d="M975.201 489.2C968.934 493.067 967.734 497.6 968.267 515.067C968.534 528.133 969.067 530.8 971.334 533.333C976.134 538.8 981.334 540 1000.67 540H1018.67V533.333V526.667H1000.93C982.667 526.667 980.001 526 980.001 521.067C980.001 518.8 981.601 518.667 1000.8 518.667H1021.73L1021.07 508C1020.4 496.4 1018.13 491.6 1011.87 488.4C1009.87 487.333 1002.93 486.667 994.001 486.667C982.001 486.667 978.534 487.067 975.201 489.2ZM1006.4 500.267C1007.33 501.2 1008 502.933 1008 504.267C1008 506.4 1006.67 506.667 994.667 506.667C983.467 506.667 981.067 506.267 980.401 504.533C978.934 500.667 983.734 498.667 994.667 498.667C1000.8 498.667 1005.47 499.333 1006.4 500.267Z" fill="black"/>
<path d="M906.666 514V540H913.333H919.999V530V520H933.333H946.533L946.933 529.6L947.333 539.333H953.333H959.333L959.733 513.6L959.999 488H953.333H946.666V497.333V506.667H933.333H919.999V497.333V488H913.333H906.666V514Z" fill="black"/>
<path d="M1036.27 490.667C1030.4 494.267 1029.33 497.867 1029.33 514.667C1029.33 528.267 1029.6 529.333 1032.8 533.2C1036.8 538 1043.07 540 1053.6 540H1061.2L1061.6 552.933L1062 566H1068H1074L1074.4 553.2L1074.8 540.4L1085.07 539.733C1103.73 538.667 1107.33 534.267 1107.33 512.4C1107.33 500.8 1106.93 498.4 1104.53 495.067C1099.6 488.4 1097.47 488 1068 488C1043.07 488 1040.27 488.267 1036.27 490.667ZM1061.33 513.333V526.667H1052.93C1048.13 526.667 1043.87 526 1042.93 525.067C1042 524.133 1041.33 519.6 1041.33 513.867C1041.33 501.6 1042.67 500 1053.47 500H1061.33V513.333ZM1093.07 501.6C1094 502.533 1094.67 507.2 1094.67 513.333C1094.67 519.467 1094 524.133 1093.07 525.067C1092.13 526 1087.87 526.667 1083.07 526.667H1074.67V513.333V500H1083.07C1087.87 500 1092.13 500.667 1093.07 501.6Z" fill="black"/>
<path d="M1116 494V500H1125.33H1134.53L1134.93 519.6L1135.33 539.333H1141.33H1147.33L1147.73 519.6L1148.13 500H1158H1168V494V488H1142H1116V494Z" fill="black"/>
<path d="M1176 514V540L1194.4 539.867C1214.53 539.867 1220.4 538.533 1224.4 533.2C1230 525.467 1228.13 508.667 1221.07 504C1218.93 502.667 1213.2 501.733 1203.33 501.333L1188.67 500.667L1188.27 494.267L1187.87 488H1181.87H1176V514ZM1213.2 515.2C1214.13 516.267 1214.67 519.2 1214.4 521.6L1214 526L1201.07 526.4L1188 526.8V520V513.333H1199.87C1208.53 513.333 1212.13 513.867 1213.2 515.2Z" fill="black"/>
<path d="M0 634.666V753.333L22.4 753.066L44.6667 752.666L45.0667 717.733L45.3333 682.666H105.733C166.133 682.666 182.8 681.733 195.333 677.733C208.533 673.6 221.867 662.533 227.733 651.066C234.4 638.133 235.333 631.866 235.333 599.333C235.333 571.333 235.067 567.866 232.4 559.333C224.667 534.933 208.667 521.733 181.333 517.333C176.133 516.533 138.8 516 86.4 516H0V634.666ZM178.667 566C181.467 567.6 184.533 571.2 186.4 574.666C189.333 580.266 189.467 582 189.067 600.666C188.667 617.866 188.267 621.333 186 625.333C180.4 634.8 181.6 634.666 109.733 634.666H45.3333V599.6C45.3333 580.266 45.7333 564 46.2667 563.466C46.8 562.933 75.7333 562.8 110.667 562.933C171.467 563.333 174.133 563.466 178.667 566Z" fill="#E4000F"/>
<path d="M304.533 578C295.333 580 285.2 584.8 279.2 590.267C264.267 603.6 260 620.533 260 666.667C260 705.2 262.667 720.667 271.467 734C279.2 745.733 291.333 752.933 308.133 755.867C321.867 758.133 379.2 757.733 390.133 755.2C412.133 750.133 424.133 739.333 431.067 718.267C433.467 711.067 433.867 705.6 434.4 673.333C434.8 644.133 434.533 634.267 432.933 624.8C428.267 598.133 415.333 583.867 390.267 578C379.2 575.333 316.533 575.333 304.533 578ZM383.067 621.733C390.8 626.8 391.333 629.333 391.333 666.667C391.333 705.6 390.933 707.6 380.933 712.133C376 714.267 372 714.667 347.333 714.667C302.8 714.667 304 716 304 666.667C304 628 304.533 625.467 313.867 621.2C318.8 618.933 322.267 618.667 349.333 618.933C375.467 619.333 380 619.6 383.067 621.733Z" fill="#E4000F"/>
<path d="M501.334 582.533C489.067 585.733 482.934 589.066 475.734 596.133C468.801 603.066 465.334 609.066 461.734 620.666C459.601 627.6 459.334 633.466 459.334 666.666C459.334 706.933 460.001 712.266 466.801 725.466C470.267 732.266 480.534 742.133 488.134 746.133C501.201 752.666 508.667 753.333 571.867 753.333C620.134 753.333 630.667 753.066 631.867 751.466C632.934 750.266 633.334 743.466 633.067 730.533L632.667 711.333L574.001 710.666C508.934 709.866 509.334 710 504.401 700.933C502.267 697.2 502.001 692.8 502.001 666.666C502.001 640.533 502.267 636.133 504.401 632.4C509.467 623.066 507.467 623.333 572.534 622.933C616.667 622.666 631.467 622.133 632.267 620.933C632.801 620 633.334 610.8 633.334 600.533C633.334 584.533 633.067 581.466 631.201 580.8C630.001 580.4 602.267 580 569.601 580.133C517.867 580.266 508.801 580.533 501.334 582.533Z" fill="#E4000F"/>
<path d="M701.333 582C677.6 587.734 664.267 601.467 659.2 625.067C656.667 637.6 656.667 695.867 659.333 708.4C662.933 725.734 673.333 739.867 687.333 746.667C700 752.8 707.867 753.334 770.933 753.067L830 752.667V732V711.334L771.067 710.667C694.533 709.734 700.667 713.734 700.667 666C700.667 638.8 700.933 634.8 703.067 631.6C708.533 623.2 706.8 623.334 771.333 622.667L830 622V601.334V580.667L769.333 580.4C722.4 580.267 707.067 580.667 701.333 582Z" fill="#E4000F"/>
<path d="M856.933 580.8C855.467 582.267 855.867 702.667 857.2 710.134C862 735.334 876.4 750.134 901.067 755.467C924.933 760.4 952.8 754.934 976.667 740.667C980.933 738.134 984.8 736 985.467 736C986 736 986.667 739.734 986.933 744.267L987.333 752.667H1008H1028.67V666.667V580.667H1008H987.333L986.667 627.334L986 674.134L981.067 680.934C967.067 699.867 942.267 713.467 921.333 713.867C911.6 714 906.4 712 902.133 706.267C899.467 702.534 899.333 700.667 898.667 641.6L898 580.667L877.867 580.267C866.933 580.134 857.467 580.4 856.933 580.8Z" fill="#E4000F"/>
<path d="M1089.73 582C1070.13 587.333 1059.47 598.8 1055.73 618.533C1055.07 622.666 1054.67 632.533 1055.07 640.4C1055.6 653.066 1056.13 655.733 1059.87 663.333C1062.13 668 1066 673.466 1068.4 675.466C1075.07 681.066 1086.13 685.6 1097.2 687.066C1102.8 687.866 1107.6 688.666 1107.73 688.8C1108.4 689.2 1103.07 695.733 1075.73 728.4C1064.8 741.333 1056 752.266 1056 752.666C1056 753.6 1107.2 753.6 1109.73 752.533C1110.8 752.133 1123.6 737.466 1138.13 720L1164.67 688.133L1174.93 688H1185.33L1185.6 720.266L1186 752.666L1204 753.066C1213.87 753.2 1223.33 753.066 1225.07 752.666L1228 752L1227.73 666.266L1227.33 580.666L1162 580.4C1109.2 580.266 1095.33 580.533 1089.73 582ZM1185.07 633.6L1184.67 644.666H1142.93C1095.6 644.666 1097.33 645.066 1097.33 633.866C1097.33 629.333 1098 627.6 1100.8 625.466C1104.27 622.8 1105.87 622.666 1144.93 622.666H1185.47L1185.07 633.6Z" fill="#E4000F"/>
</svg>
